<?xml version="1.0" standalone="no"?>
<!DOCTYPE svg PUBLIC "-//W3C//DTD SVG 20010904//EN"
 "http://www.w3.org/TR/2001/REC-SVG-20010904/DTD/svg10.dtd">
<svg version="1.0" xmlns="http://www.w3.org/2000/svg"
 width="1000.000000pt" height="1000.000000pt" viewBox="0 0 1000.000000 1000.000000"
 preserveAspectRatio="xMidYMid meet">

<g transform="translate(0.000000,1000.000000) scale(0.100000,-0.100000)"
fill="#000000" stroke="none">
<path d="M3755 7298 c-3 -13 -16 -75 -28 -138 l-23 -115 -151 -3 -151 -3 -16
-92 c-10 -50 -183 -981 -385 -2067 l-367 -1975 152 -3 151 -2 -23 -118 c-13
-64 -26 -127 -29 -140 l-6 -23 157 3 157 3 26 135 26 135 168 3 c92 1 167 -1
167 -5 0 -5 -9 -60 -20 -123 -11 -63 -20 -123 -20 -132 0 -16 14 -18 148 -18
l149 0 23 128 c12 70 25 133 27 140 4 9 44 12 154 12 82 0 149 1 149 3 0 2
128 563 145 635 l5 22 -425 0 c-393 0 -425 1 -425 17 0 15 182 953 197 1011
l5 22 359 0 359 0 5 23 c17 73 145 679 145 687 0 7 -130 10 -375 10 l-374 0 6
33 c4 17 50 246 103 507 l96 475 404 5 404 5 77 343 76 342 -159 0 -159 0 7
38 c3 20 15 79 25 131 11 51 19 97 19 102 0 5 -69 9 -153 9 l-153 0 -18 -92
c-9 -51 -22 -114 -28 -140 l-10 -48 -164 0 c-150 0 -164 2 -164 18 0 9 11 72
24 140 l23 122 -153 0 c-151 0 -154 0 -159 -22z"/>
<path d="M5837 7033 c-3 -5 -343 -930 -757 -2058 -414 -1127 -755 -2056 -757
-2062 -4 -10 66 -13 330 -13 l335 0 20 58 c11 31 75 217 142 412 67 195 131
381 142 413 l20 57 138 0 139 0 3 -55 3 -55 178 141 179 140 -7 -555 -8 -556
327 0 326 0 0 809 0 810 533 422 c292 232 537 426 544 431 7 6 24 3 45 -9 50
-27 180 -25 234 4 53 28 99 74 127 127 31 59 31 183 0 242 -28 53 -74 99 -127
127 -59 31 -183 31 -242 0 -134 -71 -188 -222 -129 -364 5 -13 -103 -103 -485
-403 -270 -212 -493 -386 -495 -386 -3 0 -5 524 -5 1165 l0 1165 -374 0 c-206
0 -377 -3 -379 -7z m2063 -1265 c77 -39 114 -121 90 -201 -24 -80 -114 -138
-192 -123 -168 32 -199 257 -44 327 54 25 92 24 146 -3z m-1935 -792 l-10
-768 -45 -39 c-25 -22 -63 -52 -86 -68 l-40 -30 -75 95 -74 94 -9 -65 -8 -65
-99 0 c-75 0 -99 3 -99 13 0 7 121 366 270 797 296 863 280 814 283 809 1 -2
-2 -350 -8 -773z"/>
</g>
</svg>
